<!-- <svg width="1096" height="886" viewBox="0 0 1096 886" fill="none" xmlns="http://www.w3.org/2000/svg">
<g clip-path="url(#clip0)">
<path d="M0 0H1096L897.958 361.376C883.226 388.258 861.639 410.761 835.391 426.596C805.565 444.591 782.202 471.568 768.653 503.659L749.044 550.101C708.816 645.382 604.802 696.752 504.69 670.782C498.912 669.283 493.3 667.201 487.942 664.57L331.833 587.905C245.911 545.709 147.542 536.323 55.1905 561.509L0 576.561V0Z" fill="#2953E7" fill-opacity="0.1"/>
<path d="M-1 0H1095L895.468 424.607C881.704 453.897 860.545 479.096 834.077 497.718C804.411 518.591 781.877 548.078 769.53 582.184L739.939 663.918C705.207 759.851 601.502 811.857 503.846 782.313C497.968 780.535 492.31 778.096 486.98 775.044L347.357 695.079C251.859 640.386 137.804 628.239 32.9288 661.595L-1 672.386V0Z" fill="#2953E7" fill-opacity="0.1"/>
<path d="M-2 0H1094L893.464 477.851C880.347 509.106 859.496 536.511 832.87 557.488C803.293 580.79 781.315 612.363 769.731 648.191L733.549 760.099C702.446 856.298 598.66 908.461 502.902 876.023C496.99 874.02 491.343 871.303 486.088 867.933L358.834 786.324C256.443 720.66 129.417 706.109 14.8286 746.918L-2 752.911V0Z" fill="#2953E7" fill-opacity="0.1"/>
</g>
<defs>
<clipPath id="clip0">
<rect width="1096" height="886" fill="white"/>
</clipPath>
</defs>
</svg> -->
<!--
<svg width="1096" height="886" viewBox="0 0 1096 886" fill="none" xmlns="http://www.w3.org/2000/svg">
<g clip-path="url(#clip0)">
<rect width="1096" height="886" fill="url(#paint0_linear)"/>
<path d="M-2 0H1094L893.464 477.851C880.347 509.106 859.496 536.511 832.87 557.488C803.293 580.79 781.315 612.363 769.731 648.191L733.549 760.099C702.446 856.298 598.66 908.461 502.902 876.023C496.99 874.02 491.343 871.303 486.088 867.933L358.834 786.324C256.443 720.66 129.417 706.109 14.8286 746.918L-2 752.911V0Z" fill="#000814" fill-opacity="0.17"/>
<path d="M0 -32H1096L895.464 445.851C882.347 477.106 861.496 504.511 834.87 525.488C805.293 548.79 783.315 580.363 771.731 616.191L735.549 728.099C704.446 824.298 600.66 876.461 504.902 844.023C498.99 842.02 493.343 839.303 488.088 835.933L360.834 754.324C258.443 688.66 131.417 674.109 16.8286 714.918L0 720.911V-32Z" fill="#000814" fill-opacity="0.17"/>
<path d="M-1 0H1095L895.468 424.607C881.704 453.897 860.545 479.096 834.077 497.718C804.411 518.591 781.877 548.078 769.53 582.184L739.939 663.918C705.207 759.851 601.502 811.857 503.846 782.313C497.968 780.535 492.31 778.096 486.98 775.044L347.357 695.079C251.859 640.386 137.804 628.239 32.9288 661.595L-1 672.386V0Z" fill="#000814" fill-opacity="0.43"/>
<path d="M0 0H1096L897.958 361.376C883.226 388.258 861.639 410.761 835.391 426.596C805.565 444.591 782.202 471.568 768.653 503.659L749.044 550.101C708.816 645.382 604.802 696.752 504.69 670.782C498.912 669.283 493.3 667.201 487.942 664.57L331.833 587.905C245.911 545.709 147.542 536.323 55.1905 561.509L0 576.561V0Z" fill="#000814"/>
</g>
<defs>
<linearGradient id="paint0_linear" x1="1087.5" y1="370.5" x2="1.84768e-05" y2="363" gradientUnits="userSpaceOnUse">
<stop stop-color="#3C0286"/>
<stop offset="1" stop-color="#181EC4" stop-opacity="0"/>
</linearGradient>
<clipPath id="clip0">
<rect width="1096" height="886" fill="white"/>
</clipPath>
</defs>
</svg> -->

<!-- <svg width="1440" height="900" viewBox="0 0 1440 900" fill="none" xmlns="http://www.w3.org/2000/svg">
<g clip-path="url(#clip0)">
<rect width="1440" height="900" fill="url(#paint0_linear)"/>
<path d="M-2.62775 0H1437.37L1173.89 485.402C1156.66 517.151 1129.26 544.989 1094.28 566.297C1055.42 589.967 1026.55 622.039 1011.33 658.433L963.787 772.11C922.922 869.829 786.561 922.816 660.747 889.865C652.98 887.831 645.56 885.071 638.656 881.648L471.461 798.749C336.932 732.047 170.037 717.267 19.4828 758.72L-2.62775 764.808V0Z" fill="#000814" fill-opacity="0.17"/>
<path d="M0 -32.5056H1440L1176.52 452.896C1159.29 484.645 1131.89 512.483 1096.91 533.791C1058.05 557.462 1029.17 589.534 1013.95 625.928L966.415 739.604C925.55 837.323 789.188 890.31 663.375 857.36C655.607 855.325 648.188 852.565 641.284 849.142L474.088 766.243C339.56 699.542 172.665 684.761 22.1106 726.215L0 732.302V-32.5056Z" fill="#000814" fill-opacity="0.17"/>
<path d="M-1.31384 0H1438.69L1176.53 431.316C1158.44 461.069 1130.64 486.666 1095.87 505.583C1056.89 526.785 1027.28 556.738 1011.06 591.383L972.183 674.409C926.549 771.858 790.295 824.685 661.987 794.675C654.265 792.869 646.831 790.391 639.828 787.291L456.381 706.062C330.91 650.505 181.056 638.166 43.2641 672.049L-1.31384 683.011V0Z" fill="#000814" fill-opacity="0.43"/>
<path d="M0 0H1440L1179.8 367.086C1160.44 394.393 1132.08 417.252 1097.59 433.337C1058.41 451.616 1027.71 479.019 1009.91 511.617L984.145 558.793C931.291 655.58 794.63 707.762 663.096 681.381C655.505 679.859 648.131 677.744 641.092 675.071L435.985 597.195C323.095 554.332 193.851 544.798 72.5131 570.382L0 585.671V0Z" fill="#000814"/>
</g>
<defs>
<linearGradient id="paint0_linear" x1="1428.83" y1="376.354" x2="0.0457544" y2="363.609" gradientUnits="userSpaceOnUse">
<stop stop-color="#3C0286"/>
<stop offset="1" stop-color="#181EC4" stop-opacity="0"/>
</linearGradient>
<clipPath id="clip0">
<rect width="1440" height="900" fill="white"/>
</clipPath>
</defs>
</svg> -->
<!-- <svg width="1440" height="1024" viewBox="0 0 1440 1024" fill="none" xmlns="http://www.w3.org/2000/svg">
<path d="M834.914 198.699C823.737 199.121 812.532 200.984 801.613 203.305C787.934 206.213 769.789 209.093 758.705 218.311C748.592 226.72 756.751 238.673 764.753 245.041C784.88 261.057 817.331 260.2 841.318 257.394C865.684 254.544 892.498 248.12 912.902 233.944C925.61 225.115 927.251 212.432 912.475 205.539C894.643 197.219 870.165 195.086 850.569 196.326C844.743 196.695 839.844 198.311 834.914 201.212" stroke="white" stroke-width="6" stroke-linecap="round" stroke-linejoin="round"/>
<path d="M949.58 201.097C926.405 201.097 901.039 199.67 878.869 207.743C874.735 209.249 853.725 218.295 860.515 225.702C863.929 229.426 873.463 229.523 877.873 229.802C892.391 230.722 907.299 228.102 921.409 224.995C925.559 224.081 977.627 207.04 976.186 205.198C973.855 202.219 945.849 229.728 945.17 230.368C928.181 246.384 912.035 263.248 895.088 279.294C884.669 289.159 873.019 300.706 859.235 305.878C845.531 311.018 842.244 297.441 847.141 286.647C857.619 263.55 881.229 259.651 904.194 256.952C917.44 255.395 930.864 255.758 944.174 255.821C946.946 255.834 954.149 255.62 952.283 257.659C949.432 260.776 943.194 265.167 951.999 260.487C971.494 250.123 990.118 238.221 1009.91 228.388C1011.12 227.784 1017.31 224.783 1012.47 228.106C1005.72 232.731 999.65 237.919 993.828 243.66C993.448 244.034 985.377 254.037 986.288 253.7C992.899 251.252 998.892 243.592 1003.93 238.994C1010.8 232.723 1017.93 226.783 1025.13 220.894C1029.85 217.035 1028.03 218.63 1024.84 222.025C999.683 248.885 973.219 275.109 944.885 298.666C943.432 299.874 927.025 312.942 938.483 301.777C951.871 288.73 967.057 277.708 981.592 266.002" stroke="white" stroke-width="6" stroke-linecap="round" stroke-linejoin="round"/>
<path d="M1027.71 240.475C1028.68 240.094 1050.15 230.413 1042.01 230.413C1033.25 230.413 1024.05 231.58 1015.61 233.885C1009.3 235.609 989.92 240.679 988.156 248.695C984.282 266.302 1053.82 246.796 1059.79 244.869C1074.47 240.127 1089.28 235.433 1103.39 229.137C1109.56 226.387 1096.61 232.663 1096.14 232.964C1093.82 234.452 1085.3 238.65 1084.9 242.034C1084.55 245.019 1106.19 236.423 1106.67 236.223C1115.84 232.369 1124.81 227.974 1134.12 224.46C1137.73 223.1 1133.06 225.115 1132.2 225.877C1131.86 226.182 1129.11 228.798 1130.5 229.491C1132.36 230.421 1138.44 227.447 1136.69 228.57C1131.16 232.111 1126.42 236.56 1121.18 240.475" stroke="white" stroke-width="6" stroke-linecap="round" stroke-linejoin="round"/>
<path d="M1188 185C1154.76 228.287 1114.77 267.602 1072.59 302.235C1042.74 326.745 1012.44 351.022 980.393 372.716C977.351 374.775 968.527 380.234 970.212 376.998C972.563 372.483 976.139 368.536 979.111 364.432" stroke="white" stroke-width="6" stroke-linecap="round" stroke-linejoin="round"/>
<path d="M1119.28 206.036C1146.53 204.677 1173.68 203.229 1200.97 204.474C1204.07 204.616 1225.74 203.992 1229.85 209.444C1238.41 220.8 1196.52 240.075 1191.53 241.888C1172.38 248.841 1148.14 254.079 1127.65 251.189C1124.5 250.744 1120.73 250.156 1118.57 247.497C1118.12 246.952 1118 245.531 1118 246.929" stroke="white" stroke-width="6" stroke-linecap="round" stroke-linejoin="round"/>
<path d="M1142.96 247.911C1155 251.945 1167.79 253.462 1180.46 252.117C1182.59 251.89 1206.58 249.713 1203.9 242.444C1200.47 233.134 1134.71 259.942 1139.98 270.34C1142.07 274.472 1159.54 271.008 1162.71 270.901C1174.26 270.51 1178.6 274.32 1179.26 285.62C1180.33 304.096 1169.06 325.807 1149.78 331.039C1138.73 334.036 1121.9 330.35 1126.91 315.338C1134.05 293.928 1158.51 277.027 1176.7 265.784C1202.69 249.719 1231.71 240.104 1262 235.575C1274.59 233.693 1265.73 242.03 1261.29 246.93C1257.67 250.93 1251.38 259.371 1259.73 251.135C1264.04 246.88 1276.8 235.927 1274.79 228.846C1273.07 222.796 1262.59 233.441 1261.43 234.734C1253.7 243.419 1265.5 241.795 1269.53 237.818" stroke="white" stroke-width="6" stroke-linecap="round" stroke-linejoin="round"/>
<path d="M1280.2 236.612C1259.87 270.594 1305.92 213.761 1302.21 234.199C1300.98 240.973 1297.74 246.88 1294.92 253.083C1293.36 256.517 1287.87 265.677 1291.07 263.732C1293.39 262.32 1294.94 254.589 1295.76 252.657C1300.62 241.26 1306.62 230.573 1313 220" stroke="white" stroke-width="6" stroke-linecap="round" stroke-linejoin="round"/>
<path d="M1325 203C1327 203 1329 203 1331 203" stroke="white" stroke-width="6" stroke-linecap="round" stroke-linejoin="round"/>
<path d="M1331 203C1323 208.03 1265.18 234.73 1285.18 248.323C1302.35 259.987 1313.97 241.219 1322.04 229.357" stroke="white" stroke-width="6" stroke-linecap="round" stroke-linejoin="round"/>
<path d="M1344 171C1331.19 177.771 1318.7 185.035 1306 192" stroke="white" stroke-width="6" stroke-linecap="round" stroke-linejoin="round"/>
</svg>
     -->
<!--
     <svg width="1440" height="1024" viewBox="0 0 1440 1024" fill="none" xmlns="http://www.w3.org/2000/svg">
<path d="M1021.93 240.687C1022.62 240.425 1057.27 228.117 1051.53 228.117C1049.42 224.999 1042.4 224.212 1036.46 225.796C1032.01 226.981 1018.35 230.467 1017.11 235.978C1014.38 248.082 1063.38 234.672 1067.59 233.347C1077.94 230.087 1088.37 226.86 1098.32 222.532C1102.66 220.641 1093.54 224.956 1093.21 225.163C1091.57 226.185 1085.57 229.072 1085.28 231.399C1085.04 233.451 1100.29 227.541 1100.62 227.404C1107.09 224.754 1113.41 221.732 1119.97 219.316C1122.51 218.381 1119.22 219.767 1118.62 220.291C1118.38 220.5 1116.44 222.299 1117.42 222.775C1118.73 223.414 1123.01 221.37 1121.78 222.142C1117.88 224.576 1114.54 227.635 1110.85 230.327" stroke="white" stroke-width="5" stroke-linecap="round" stroke-linejoin="round"/>
<path d="M1165 172C1140.45 205.867 1110.92 236.627 1079.77 263.722C1057.72 282.899 1035.35 301.893 1011.68 318.866C1009.43 320.477 1002.91 324.748 1004.16 322.216C1005.89 318.684 1008.53 315.595 1010.73 312.385" stroke="white" stroke-width="5" stroke-linecap="round" stroke-linejoin="round"/>
<path d="M1110.41 178.63C1140.56 176.874 1170.59 175.005 1200.78 176.613C1204.21 176.796 1228.18 175.99 1232.73 183.032C1242.2 197.699 1195.86 222.596 1190.33 224.939C1169.16 233.92 1142.34 240.685 1119.68 236.952C1116.19 236.378 1112.02 235.618 1109.63 232.184C1109.14 231.479 1109 229.645 1109 231.45" stroke="white" stroke-width="5" stroke-linecap="round" stroke-linejoin="round"/>
<path d="M1126.07 235.722C1134.63 238.422 1143.73 239.437 1152.75 238.537C1154.26 238.385 1171.33 236.928 1169.42 232.063C1166.98 225.832 1120.2 243.774 1123.94 250.733C1125.43 253.498 1137.86 251.18 1140.11 251.108C1148.33 250.847 1151.42 253.396 1151.89 260.959C1152.65 273.324 1144.63 287.855 1130.92 291.357C1123.06 293.363 1111.08 290.895 1114.65 280.849C1119.73 266.519 1137.13 255.208 1150.07 247.684C1168.56 236.932 1189.2 230.497 1210.75 227.466C1219.71 226.206 1213.4 231.786 1210.25 235.065C1207.67 237.742 1203.2 243.392 1209.14 237.88C1212.2 235.032 1221.28 227.702 1219.85 222.963C1218.63 218.914 1198.48 228.894 1197.66 229.759C1192.16 235.572 1200.55 234.485 1203.42 231.823" stroke="white" stroke-width="5" stroke-linecap="round" stroke-linejoin="round"/>
<path d="M1225.71 218.568C1209.31 261.676 1241.18 212.888 1238.65 226.358C1237.81 230.823 1235.6 234.716 1233.68 238.805C1232.61 241.068 1228.87 247.105 1231.05 245.823C1232.63 244.893 1233.69 239.797 1234.25 238.524C1237.56 231.012 1241.65 223.969 1246 217" stroke="white" stroke-width="5" stroke-linecap="round" stroke-linejoin="round"/>
<path d="M1245 209C1246.33 209 1247.67 209 1249 209" stroke="white" stroke-width="3" stroke-linecap="round" stroke-linejoin="round"/>
<path d="M1045 209C1046.33 209 1047.67 209 1049 209" stroke="white" stroke-width="5" stroke-linecap="round" stroke-linejoin="round"/>
<path d="M1270 221.396C1262.3 212.526 1236.41 230.661 1247.89 237.263C1260.9 238.68 1261.87 238.491 1266.5 232.729" stroke="white" stroke-width="3" stroke-linecap="round" stroke-linejoin="round"/>
<path d="M1289 202C1279.75 205.077 1272.13 207.408 1263 212" stroke="white" stroke-width="3" stroke-linecap="round" stroke-linejoin="round"/>
<path d="M928.972 164C895.867 184.356 861.647 210.506 847.681 245.743C842.171 259.645 840.411 274.668 860.198 274.994C880.357 275.327 901.255 261.006 913.803 248.147C930.959 230.567 943.33 211.588 943.993 187.775C944.669 163.48 897.397 177.294 884.497 180.028C878.459 181.308 861.097 183.119 857.695 189.511C855.904 192.876 864.843 196.506 866.678 197.659" stroke="white" stroke-width="5" stroke-linecap="round" stroke-linejoin="round"/>
<path d="M980.023 219.743C950.999 225.083 919.665 235.202 897.031 253.16C893.914 255.633 885.406 259.398 888.776 261.581C892.22 263.811 903.429 260.753 906.539 259.91C923.563 255.293 940.359 248.882 956.732 242.667C969.844 237.69 984.127 232.301 995.649 224.555C1001.78 220.431 997.871 217.976 991.669 217.604C974.369 216.567 953.077 219.904 941.254 232.374C929.673 244.591 941.604 247.905 944.571 259.91C949.503 279.861 936.779 303.185 918.406 313.912C912.636 317.28 906.534 320.341 899.537 318.389C895.842 317.358 898.881 311.314 899.537 309.367C903.877 296.488 914.253 285.976 923.712 275.95C944.202 254.234 967.692 236.601 994.322 221.347C1006.28 214.499 1018.29 209.652 1031.54 205.507C1033.38 204.932 1033.6 204.145 1031.91 206.376C1025.8 214.451 1020.26 223.027 1014 230.971C1010.95 234.847 1022.22 225.033 1026.16 221.882C1037.52 212.795 1048.53 203.384 1060.07 194.48C1062.54 192.574 1062.59 192.61 1060.51 194.012C1057.54 196.014 1054.09 198.294 1051.22 200.294C1036.36 210.647 1023.51 222.909 1010.54 235.115C1004.83 240.484 987.457 256.282 993.88 251.623C1001.11 246.378 1006.9 239.122 1013.49 233.243C1023.28 224.503 1014.44 235.654 1012.38 238.857C1006.66 247.774 1001.92 257.185 996.238 266.125C994.689 268.562 990.185 275.755 990.858 273.009C991.507 270.363 994.325 267.659 995.944 265.457" stroke="white" stroke-width="5" stroke-linecap="round" stroke-linejoin="round"/>
</svg> -->

<svg width="1440" height="900" viewBox="0 0 1440 900" fill="none" xmlns="http://www.w3.org/2000/svg">
<g clip-path="url(#clip0)">
<line x1="-80" y1="649.5" x2="1520" y2="649.5" stroke="white" stroke-opacity="0.11" stroke-dasharray="5 6 7 5 6 7"/>
<line x1="-80" y1="449.5" x2="1520" y2="449.5" stroke="url(#paint0_linear)" stroke-opacity="0.38" stroke-dasharray="5 6 7 5 6 7"/>
<line x1="719.5" y1="900" x2="719.5" stroke="url(#paint1_linear)" stroke-opacity="0.38" stroke-dasharray="5 6 7 5 6 7"/>
<line x1="1196.5" y1="888" x2="1196.5" y2="-12" stroke="url(#paint2_linear)" stroke-opacity="0.38" stroke-dasharray="5 6 7 5 6 7"/>
<line x1="238.5" y1="900" x2="238.5" stroke="url(#paint3_linear)" stroke-opacity="0.38" stroke-dasharray="5 6 7 5 6 7"/>
<line x1="-80" y1="250.5" x2="1520" y2="250.5" stroke="white" stroke-opacity="0.11" stroke-dasharray="7 8 9 7 8 9"/>
</g>
<defs>
<linearGradient id="paint0_linear" x1="720" y1="450" x2="720" y2="451" gradientUnits="userSpaceOnUse">
<stop stop-color="white" stop-opacity="0.15"/>
<stop offset="0.484375" stop-color="white" stop-opacity="0.51"/>
<stop offset="1" stop-color="white" stop-opacity="0"/>
<stop offset="1" stop-color="white" stop-opacity="0.15"/>
</linearGradient>
<linearGradient id="paint1_linear" x1="720" y1="450" x2="721" y2="450" gradientUnits="userSpaceOnUse">
<stop stop-color="white" stop-opacity="0.15"/>
<stop offset="0.484375" stop-color="white" stop-opacity="0.51"/>
<stop offset="1" stop-color="white" stop-opacity="0"/>
<stop offset="1" stop-color="white" stop-opacity="0.15"/>
</linearGradient>
<linearGradient id="paint2_linear" x1="1197" y1="438" x2="1198" y2="438" gradientUnits="userSpaceOnUse">
<stop stop-color="white" stop-opacity="0.15"/>
<stop offset="0.484375" stop-color="white" stop-opacity="0.51"/>
<stop offset="1" stop-color="white" stop-opacity="0"/>
<stop offset="1" stop-color="white" stop-opacity="0.15"/>
</linearGradient>
<linearGradient id="paint3_linear" x1="239" y1="450" x2="240" y2="450" gradientUnits="userSpaceOnUse">
<stop stop-color="white" stop-opacity="0.15"/>
<stop offset="0.484375" stop-color="white" stop-opacity="0.51"/>
<stop offset="1" stop-color="white" stop-opacity="0"/>
<stop offset="1" stop-color="white" stop-opacity="0.15"/>
</linearGradient>
<clipPath id="clip0">
<rect width="1440" height="900" fill="white"/>
</clipPath>
</defs>
</svg>
